<svg enable-background="new 0 0 62 9" viewBox="0 0 62 9" xmlns="http://www.w3.org/2000/svg"><path class="menu-a-path-black" d="m0 6.5c1.4-1 2.9-.9 4.3-.9 2.1 0 4.2.2 6.3.2 3.9 0 7.9-.2 11.8-.3 1.4-.1 2.9-.3 4.3-.5 1-.1 2.1-.2 3.1-.3 1.9-.2 3.8-.4 5.8-.6 1.4-.2 2.8-.5 4.3-.7 1.1-.2 2.2-.5 3.3-.6 2-.2 3.9-.6 5.8-1.5.4-.3.9-.3 1.3-.4 1-.2 2-.4 3-.6 1.2-.2 2.3-.5 3.6-.2.5.2 1.2-.1 1.8-.2 1.9-.2 3.3 1.1 3.3 2.6 0 1.1 0 1.4-1 1.6-2.1.6-4.2 1.2-6.3 1.7-1.6.4-3.1.7-4.7.9-1 .2-2 .2-2.9-.5-.4-.3-1.1-.3-1.6-.3-2.5.4-4.9.8-7.4 1.2-.6.1-1.2.2-1.8.3-1.7.1-3.4.2-5 .4-1.2.1-2.3.5-3.5.6-3.3.2-6.5.4-9.8.6-1.8.1-3.7 0-5.5-.1-2.9-.2-5.8-.3-8.6-.5-.5 0-1-.2-1.4-.4-.3 0-.5-.3-.5-.3-1.2.6-1.5-.4-2-1.2z" fill="#1c1c1c"></path><path d="m61.7 1.3s-17.8 6.6-61.7 5.2" data-duration=".5" fill="none" class="menu-a-path" stroke="#FFFFFF" stroke-miterlimit="10" stroke-width="6" stroke-dasharray="200 200"></path></svg>